<?xml version="1.0" encoding="UTF-8"?>
<svg xmlns="http://www.w3.org/2000/svg" width="240" height="72" viewBox="0 0 240 72">
  <defs>
    <linearGradient id="g" x1="0" x2="1" y1="0" y2="1">
      <stop offset="0%" stop-color="#F5C518"/>
      <stop offset="100%" stop-color="#D4A20A"/>
    </linearGradient>
  </defs>
  <rect width="240" height="72" rx="16" fill="transparent"/>
  <path d="M22 44c-8 0-10-6-10-10 0-9 9-24 20-24s20 15 20 24c0 4-2 10-10 10-6 0-9-3-10-7-1 4-4 7-10 7z" fill="url(#g)"/>
  <path d="M18 32c0 4 3 8 7 8s7-4 7-8-3-8-7-8-7 4-7 8z" fill="#fff" opacity="0.85"/>
  <path d="M31 26c0 4 4 8 9 8s9-4 9-8-4-8-9-8-9 4-9 8z" fill="#fff" opacity="0.85"/>
  <path d="M17 36c4 2 9 3 14 3s10-1 14-3" stroke="#fff" stroke-width="2" fill="none" opacity="0.9"/>
  <text x="68" y="44" font-family="Cormorant Garamond, Georgia, serif" font-size="24" font-weight="700" fill="#2C1A0E">Pâtisserie</text>
  <text x="68" y="62" font-family="Segoe UI, sans-serif" font-size="14" fill="#4A2C17">Royale</text>
</svg>